<svg xmlns="http://www.w3.org/2000/svg" viewBox="0 0 48 60" x="0px" y="0px"><defs><style>
      .cls-1 {
        stroke-width: 0px;
      }
    </style></defs><path class="cls-1" d="m41.92139,18.98633c-1.35107-1.33594-3.13135-2.07129-5.0127-2.07129h-8.15088c-.55225,0-1,.44775-1,1s.44775,1,1,1h8.15088c1.35156,0,2.63232.53027,3.60254,1.48926,3.19421,3.11224.87311,8.73492-3.60266,8.6806.00012.00006-9.9071.00006-9.9071.00006-.88184,0-1.75049-.22998-2.50977-.66357-1.57379-.8963-2.58624-2.60016-2.56885-4.41504-.01807-1.31262-1.98022-1.31451-2,0-.08557,3.79987,3.28143,7.15161,7.07867,7.07855-.00006.00006,9.90717.00006,9.90717.00006,6.22986.07507,9.47345-7.76141,5.0127-12.09863Z"/><path class="cls-1" d="m6.07489,29.00983c1.33771,1.33832,3.11945,2.07513,5.01642,2.07513h8.15088c1.3139-.02454,1.31543-1.97614,0-2h-8.15088c-1.36279,0-2.64209-.52881-3.60254-1.48926-3.20367-3.07239-.83728-8.76886,3.60266-8.6806-.00012-.00006,9.9071-.00006,9.9071-.00006,2.73083-.04462,5.12817,2.36072,5.07855,5.09131.01776,1.31256,1.98059,1.31439,2.00006-.00006.06689-3.80841-3.26978-7.15491-7.07867-7.09119.00006-.00006-9.90717-.00006-9.90717-.00006-6.2157-.07642-9.47742,7.75836-5.01642,12.09479Z"/><text x="0" y="63" fill="#000000" font-size="5px" font-weight="bold" font-family="'Helvetica Neue', Helvetica, Arial-Unicode, Arial, Sans-serif">Created by Selot Lo</text><text x="0" y="68" fill="#000000" font-size="5px" font-weight="bold" font-family="'Helvetica Neue', Helvetica, Arial-Unicode, Arial, Sans-serif">from the Noun Project</text></svg>